# xmcd
#
# Track frame offsets:
#	150
#	6742
#	19398
#	34642
#	37777
#	45360
#	48748
#	55655
#	60528
#	67812
#	70338
#	75751
#	79438
#	84228
#	91428
#	96188
#	108218
#	120417
#	132881
#	145443
#	159242
#
# Disc length: 2306 seconds
#
# Revision: 2
# Processed by: cddbd v1.5.2PL0 Copyright (c) Steve Scherf et al.
# Submitted via: audiograbber 1.83.01
#
DISCID=06090015
DTITLE=Wylie Gustafson - How To Yodel - Lessons To Tickle Your Tonsils
DYEAR=2007
DGENRE=Folklore
TTITLE0=The Basics
TTITLE1=Voice Warm-Ups And Breathing Exercises
TTITLE2=Finding The Elusive Voice Break
TTITLE3=Knock Knock Yodel
TTITLE4=Triad Yodel
TTITLE5=Avdanced Triad Yodel
TTITLE6=Finding Your Natural Range
TTITLE7=Fast Cowboy Yodel
TTITLE8=Blue Yodel
TTITLE9=Voce Break Yodel
TTITLE10=Slow Lullaby Yodel
TTITLE11=Swiss Yodel
TTITLE12=Tongue Tricks
TTITLE13=Voice Break Rhythms
TTITLE14=Conclusion To The Lessons
TTITLE15=Whip Out A Yodel (with vocals)
TTITLE16=Whip Out A Yodel (without vocals)
TTITLE17=Eltopia Yodel (with vocals)
TTITLE18=Eltopia Yodel (without vocals)
TTITLE19=Uber Yodel (with vocals)
TTITLE20=Uber Yodel (with vocals)
EXTD=
EXTT0=
EXTT1=
EXTT2=
EXTT3=
EXTT4=
EXTT5=
EXTT6=
EXTT7=
EXTT8=
EXTT9=
EXTT10=
EXTT11=
EXTT12=
EXTT13=
EXTT14=
EXTT15=
EXTT16=
EXTT17=
EXTT18=
EXTT19=
EXTT20=
PLAYORDER=
